<svg width="41.457275" height="41.457275" viewBox="0 0 41.4573 41.4573" fill="none" xmlns="http://www.w3.org/2000/svg" xmlns:xlink="http://www.w3.org/1999/xlink">
	<desc>
			Created with Pixso.
	</desc>
	<defs>
		<clipPath id="clip24_122">
			<rect id="apple" width="41.457287" height="41.457287" fill="white" fill-opacity="0"/>
		</clipPath>
	</defs>
	<rect id="apple" width="41.457287" height="41.457287" fill="#FFFFFF" fill-opacity="0"/>
	<g clip-path="url(#clip24_122)">
		<path id="bg" d="M38.8662 20.7285C38.8662 30.7405 30.7497 38.8662 20.7287 38.8662C10.7076 38.8662 2.59109 30.7405 2.59109 20.7285C2.59109 10.7075 10.7076 2.59106 20.7287 2.59106C30.7497 2.59106 38.8662 10.7075 38.8662 20.7285Z" fill="#283544" fill-opacity="1.000000" fill-rule="nonzero"/>
		<path id="apple" d="M29.2301 16.1392C29.1312 16.1968 26.7751 17.4153 26.7751 20.1169C26.8861 23.1982 29.7484 24.2786 29.7975 24.2786C29.7484 24.3364 29.3653 25.7505 28.2307 27.2329C27.3303 28.51 26.3309 29.7976 24.8132 29.7976C23.3696 29.7976 22.8514 28.9465 21.1857 28.9465C19.3969 28.9465 18.8907 29.7976 17.5211 29.7976C16.0035 29.7976 14.9301 28.4409 13.9806 27.176C12.747 25.5205 11.6985 22.9221 11.6614 20.4275C11.6365 19.1055 11.9085 17.8059 12.5989 16.7021C13.5734 15.1614 15.3131 14.1152 17.213 14.0808C18.6686 14.0352 19.9642 15.0122 20.8526 15.0122C21.7039 15.0122 23.2956 14.0808 25.0965 14.0808C25.8738 14.0815 27.9467 14.2998 29.2301 16.1392ZM20.7294 13.8169C20.4703 12.6096 21.1857 11.4023 21.852 10.6323C22.7033 9.70093 24.048 9.06885 25.2075 9.06885C25.2816 10.2761 24.8124 11.4602 23.9739 12.3225C23.2216 13.2537 21.926 13.9548 20.7294 13.8169Z" fill="#FFFFFF" fill-opacity="1.000000" fill-rule="nonzero"/>
	</g>
</svg>
