<svg width="14.000015" height="12.088135" viewBox="0 0 14 12.0881" fill="none" xmlns="http://www.w3.org/2000/svg" xmlns:xlink="http://www.w3.org/1999/xlink">
	<desc>
			Created with Pixso.
	</desc>
	<defs/>
	<path id="Vector" d="M6.89343 3.82642L8.89752 5.83057L8.90707 5.72559C8.90707 4.67261 8.05136 3.81689 6.99841 3.81689L6.89343 3.82642Z" fill="#ABABAB" fill-opacity="1.000000" fill-rule="nonzero"/>
	<path id="Vector" d="M6.99837 2.54468C8.75433 2.54468 10.1795 3.96973 10.1795 5.72583C10.1795 6.13599 10.0968 6.52734 9.95363 6.88672L11.8146 8.7478C12.7753 7.94604 13.5324 6.90918 14 5.72583C12.8961 2.93286 10.1827 0.954102 6.9984 0.954102C6.10768 0.954102 5.25517 1.11304 4.46307 1.39941L5.83731 2.77051C6.19673 2.63062 6.58801 2.54468 6.99837 2.54468Z" fill="#ABABAB" fill-opacity="1.000000" fill-rule="nonzero"/>
	<path id="Vector" d="M0.636215 0.811279L2.08679 2.26172L2.37628 2.55127C1.32652 3.37207 0.496246 2.78101 0 4.04395C1.10066 6.83691 3.81889 9.04395 7 9.04395C7.98615 9.04395 8.92616 10.3066 9.78825 9.95996L10.0587 10.2305L11.9132 12.0881L12.7244 11.2803L1.44739 0L0.636215 0.811279ZM4.15453 4.32642L5.13748 5.30933C5.10884 5.44604 5.08977 5.58276 5.08977 5.72607C5.08977 6.77881 5.94547 7.63452 6.99841 7.63452C7.14157 7.63452 7.27837 7.61548 7.41197 7.58691L8.39493 8.56982C7.97183 8.77979 7.50105 8.90698 6.99841 8.90698C5.24246 8.90698 3.81731 5.72607 3.81731 5.72607C3.81731 5.72607 3.94456 4.75244 4.15453 4.32642Z" fill="#ABABAB" fill-opacity="1.000000" fill-rule="nonzero"/>
</svg>
