<svg width="98.900330" height="19.418945" viewBox="0 0 98.9003 19.4189" fill="none" xmlns="http://www.w3.org/2000/svg" xmlns:xlink="http://www.w3.org/1999/xlink">
	<desc>
			Created with Pixso.
	</desc>
	<defs/>
	<path id="Your Logo" d="M7.53906 9.10156L12.2607 0L9.14062 0L6.16211 6.38184L3.15918 0L0 0L4.74121 9.10156L4.74121 13.96L7.53906 13.96L7.53906 9.10156ZM60.0996 11.7383L55.5 11.7383L55.5 0L52.7021 0L52.7021 13.96L60.0996 13.96L60.0996 11.7383ZM16.3556 13.6492Q17.4689 14.1406 18.7991 14.1406Q20.1703 14.1406 21.3179 13.6341Q21.527 13.5418 21.7288 13.4326Q22.3434 13.099 22.8383 12.6371Q23.401 12.112 23.8089 11.4209Q23.8788 11.3032 23.9423 11.1822Q24.5804 9.96767 24.5804 8.41797Q24.5804 6.82504 23.9195 5.58397Q23.8754 5.50116 23.8284 5.41992Q23.4298 4.72701 22.8729 4.20226Q22.3858 3.74338 21.7776 3.41309Q21.5136 3.26816 21.2372 3.15269Q20.1542 2.7002 18.8821 2.7002Q17.6022 2.7002 16.5126 3.15546Q16.2387 3.26989 15.9768 3.41309Q15.3917 3.73205 14.9176 4.17092Q14.3392 4.70622 13.9261 5.41992Q13.8865 5.48876 13.849 5.55872Q13.179 6.80881 13.179 8.41797Q13.179 10.1149 13.9004 11.4099Q13.9034 11.4154 13.9065 11.4209Q14.3175 12.1498 14.9008 12.6941Q15.3568 13.1198 15.9182 13.4326Q16.1326 13.5508 16.3556 13.6492ZM64.3556 13.6492Q65.4689 14.1406 66.7991 14.1406Q68.1703 14.1406 69.3179 13.6341Q69.527 13.5418 69.7288 13.4326Q70.3434 13.099 70.8383 12.6371Q71.401 12.112 71.8089 11.4209Q71.8788 11.3032 71.9423 11.1822Q72.5804 9.96767 72.5804 8.41797Q72.5804 6.82504 71.9195 5.58397Q71.8754 5.50116 71.8284 5.41992Q71.4298 4.72701 70.8729 4.20226Q70.3858 3.74338 69.7776 3.41309Q69.5136 3.26816 69.2372 3.15269Q68.1542 2.7002 66.8821 2.7002Q65.6022 2.7002 64.5126 3.15546Q64.2387 3.26989 63.9768 3.41309Q63.3917 3.73205 62.9175 4.17093Q62.3392 4.70623 61.9261 5.41992Q61.8865 5.48876 61.849 5.55872Q61.179 6.80881 61.179 8.41797Q61.179 10.1149 61.9004 11.4099L61.9065 11.4209Q62.3175 12.1497 62.9007 12.6941Q63.3568 13.1198 63.9182 13.4326Q64.1326 13.5508 64.3556 13.6492ZM81.1558 3.19336Q80.2183 2.7002 78.978 2.7002Q78.0405 2.7002 77.2185 3.00843Q76.7991 3.16573 76.4097 3.40332Q76.1662 3.55146 75.9441 3.72663Q75.1193 4.37712 74.5884 5.40039Q73.9194 6.69922 73.9194 8.37891Q73.9194 10.0781 74.5884 11.3916Q75.1034 12.3918 75.9009 13.0497Q76.1467 13.2526 76.4194 13.4229Q76.9144 13.7286 77.4519 13.9041Q78.1763 14.1406 78.978 14.1406Q80.1672 14.1406 81.0968 13.6495Q81.1215 13.6364 81.146 13.623Q82.0982 13.1006 82.6402 12.3193L82.6402 14.0381Q82.6402 15.4748 81.9219 16.2024Q81.9005 16.2241 81.8784 16.2451Q81.6918 16.4258 81.4769 16.5618Q80.8205 16.9775 79.9009 16.9775Q78.8609 16.9775 78.1284 16.5283Q77.6511 16.2336 77.3924 15.8065Q77.2567 15.5826 77.1812 15.3223L74.398 15.3223Q74.5051 16.3383 74.9866 17.1252Q75.4053 17.8094 76.1069 18.3203Q77.6206 19.4189 79.979 19.4189Q81.7417 19.4189 82.9819 18.7061Q83.7855 18.2474 84.3287 17.5775Q84.6239 17.2135 84.8423 16.7871Q85.4624 15.5811 85.4624 14.0381L85.4624 2.88086L82.6402 2.88086L82.6402 4.45801Q82.6253 4.43678 82.6102 4.41577Q82.0724 3.66829 81.1558 3.19336ZM90.6756 13.6492Q91.7889 14.1406 93.1191 14.1406Q94.4903 14.1406 95.6379 13.6341Q95.847 13.5418 96.0488 13.4326Q96.6634 13.099 97.1583 12.6371Q97.721 12.112 98.1289 11.4209Q98.1988 11.3032 98.2623 11.1822Q98.9003 9.96767 98.9003 8.41797Q98.9003 6.82504 98.2395 5.58397Q98.1954 5.50116 98.1484 5.41992Q97.7498 4.72701 97.1929 4.20226Q96.7058 3.74338 96.0976 3.41309Q95.8336 3.26816 95.5572 3.15269Q94.4742 2.7002 93.2021 2.7002Q91.9222 2.7002 90.8326 3.15546Q90.5587 3.26989 90.2968 3.41309Q89.7117 3.73205 89.2376 4.17092Q88.6592 4.70622 88.246 5.41992Q88.2065 5.48876 88.169 5.55872Q87.499 6.80881 87.499 8.41797Q87.499 10.1149 88.2204 11.4099L88.2265 11.4209Q88.6375 12.1498 89.2207 12.6941Q89.6768 13.1198 90.2382 13.4326Q90.4526 13.5508 90.6756 13.6492ZM43.4645 3.65037Q42.9984 4.05072 42.66 4.59961L42.66 2.88086L39.8621 2.88086L39.8621 13.96L42.66 13.96L42.66 8.44238Q42.66 6.89941 43.3289 6.2793Q43.9978 5.65918 45.3211 5.65918L46.0584 5.65918L46.0584 2.71973Q45.0698 2.71973 44.2759 3.11284Q44.1718 3.16437 44.0711 3.22266Q43.7447 3.40967 43.4645 3.65037ZM37.1011 13.96L37.1011 2.88086L34.2788 2.88086L34.2788 8.97949Q34.2788 10.2931 33.6244 11.0056Q33.622 11.0082 33.6196 11.0107Q33.4713 11.1701 33.2974 11.2936Q32.6989 11.7188 31.7984 11.7188Q30.9502 11.7188 30.368 11.3253Q30.1692 11.1909 30.0015 11.0107Q29.9991 11.0082 29.9967 11.0056Q29.3423 10.2931 29.3423 8.97949L29.3423 2.88086L26.5396 2.88086L26.5396 9.37988Q26.5396 10.8594 27.1109 11.9287Q27.5069 12.6699 28.107 13.1625Q28.3726 13.3805 28.6782 13.5498Q28.6943 13.5586 28.7104 13.5673Q29.7 14.1016 30.978 14.1016Q31.8028 14.1016 32.5286 13.8337Q32.701 13.7701 32.8677 13.6914Q33.556 13.3684 34.0354 12.8516Q34.1647 12.7121 34.2788 12.5586L34.2788 13.96L37.1011 13.96ZM19.5307 11.6094Q19.1763 11.6992 18.7991 11.6992Q18.1342 11.6992 17.595 11.4389Q17.1601 11.2289 16.8069 10.8496Q16.0208 10 16.0208 8.41797Q16.0208 6.89249 16.7791 6.04766Q16.8048 6.01904 16.8313 5.99121Q17.2123 5.59192 17.6784 5.38028Q18.2041 5.1416 18.8382 5.1416Q19.4611 5.1416 19.9842 5.37009Q20.4698 5.5822 20.8694 5.99121Q20.9177 6.04066 20.9632 6.09257Q21.6995 6.93261 21.6995 8.41797Q21.6995 9.47754 21.2991 10.2197Q20.9787 10.8136 20.4864 11.1698Q20.3635 11.2588 20.2298 11.333Q19.8921 11.5179 19.5307 11.6094ZM67.5307 11.6094Q67.1763 11.6992 66.7991 11.6992Q66.1342 11.6992 65.595 11.4389Q65.1601 11.2289 64.8069 10.8496Q64.0208 10 64.0208 8.41797Q64.0208 6.89249 64.7791 6.04766Q64.8048 6.01904 64.8313 5.99121Q65.2123 5.59192 65.6784 5.38028Q66.2041 5.1416 66.8382 5.1416Q67.4611 5.1416 67.9842 5.37009Q68.4698 5.5822 68.8694 5.99121Q68.9177 6.04066 68.9632 6.09257Q69.6995 6.93261 69.6995 8.41797Q69.6995 9.47754 69.2991 10.2197Q68.9787 10.8136 68.4864 11.1698Q68.3635 11.2588 68.2298 11.333Q67.8921 11.5179 67.5307 11.6094ZM93.8507 11.6094Q93.4963 11.6992 93.1191 11.6992Q92.4542 11.6992 91.915 11.4389Q91.4801 11.2289 91.1269 10.8496Q90.3408 10 90.3408 8.41797Q90.3408 6.89249 91.0991 6.04766Q91.1248 6.01904 91.1513 5.99121Q91.5323 5.59192 91.9984 5.38028Q92.5241 5.1416 93.1582 5.1416Q93.7811 5.1416 94.3042 5.37009Q94.7898 5.5822 95.1894 5.99121Q95.2377 6.04066 95.2832 6.09257Q96.0195 6.93261 96.0195 8.41797Q96.0195 9.47754 95.6191 10.2197Q95.2987 10.8136 94.8064 11.1698Q94.6835 11.2588 94.5498 11.333Q94.212 11.5179 93.8507 11.6094ZM82.2398 6.6748Q82.6402 7.40234 82.6402 8.41797Q82.6402 9.43848 82.2398 10.1709Q81.9595 10.6802 81.5428 11.0244Q81.3643 11.1719 81.1607 11.2891Q80.8153 11.4878 80.4434 11.5855Q80.0844 11.6797 79.7007 11.6797Q79.382 11.6797 79.0796 11.6096Q78.6591 11.5122 78.27 11.2793Q78.1474 11.2059 78.0335 11.1209Q77.5259 10.742 77.1909 10.1318Q76.7808 9.37988 76.7808 8.37891Q76.7808 7.37793 77.1909 6.65039Q77.5357 6.03471 78.0565 5.67091Q78.1552 5.60192 78.2603 5.54199Q78.5264 5.38821 78.8125 5.29652Q79.2349 5.16113 79.7007 5.16113Q80.0844 5.16113 80.4434 5.25537Q80.8153 5.35299 81.1607 5.55176Q81.3541 5.66311 81.525 5.80224Q81.9535 6.15117 82.2398 6.6748Z" fill="#000000" fill-opacity="1.000000" fill-rule="evenodd"/>
</svg>
